<svg xmlns="http://www.w3.org/2000/svg" fill="none" viewBox="0 0 199 34" class="h-8 w-auto"><path fill="#E6FF2A" d="M.616 0h28v28h-28z"></path><circle cx="14.616" cy="14" r="6.836" fill="#101011"></circle><path fill="#fff" d="M113.153 8.07h-3.06v19.502h3.06V15.578a5.15 5.15 0 0 1 1.343-3.715 5.17 5.17 0 0 1 4.022-1.678c2.758 0 4.42 1.433 4.42 3.96v13.428h3.059V13.88c0-4.035-2.492-6.261-6.572-6.261a7.33 7.33 0 0 0-6.195 3.017h-.075zm-15.41 1.925c3.51 0 5.514 2.377 5.703 6.261H91.699c.453-3.545 2.417-6.261 6.043-6.261M97.93 28.1c4.42 0 7.479-2.377 8.385-6.563h-2.984c-.679 2.64-2.568 3.995-5.4 3.995-3.93 0-6.082-3.018-6.309-6.978h15.109c0-6.45-3.135-10.976-8.99-10.976-5.553 0-9.254 4.602-9.254 10.26 0 5.656 3.475 10.259 9.443 10.259m-20.51-2.524c-4.495 0-6.194-3.433-6.194-7.657s1.962-7.694 6.232-7.694c3.702 0 5.552 3.319 5.552 7.694 0 4.413-1.85 7.657-5.59 7.657m-9.068 8.26h3.06v-8.562h.075c1.624 2.074 3.511 2.867 6.16 2.867 5.288 0 8.5-3.999 8.5-10.26 0-6.487-3.438-10.259-8.386-10.259a7.34 7.34 0 0 0-6.27 3.206h-.076V8.07h-3.063zM51.17 25.158c-6.345 0-9.745-4.753-9.745-11.09s3.4-11.126 9.745-11.126c6.346 0 9.746 4.79 9.746 11.127 0 6.336-3.4 11.089-9.746 11.089m0 2.98c8.16 0 13.22-5.998 13.22-14.07C64.39 5.999 59.33 0 51.17 0c-8.158 0-13.22 5.997-13.22 14.069 0 8.071 5.062 14.069 13.22 14.069"></path><path fill="#E6FF2A" d="M181.925 2.942h7.289c3.438 0 5.44 1.697 5.44 4.941 0 3.093-1.813 5.016-5.631 5.016h-7.1zm-3.4 24.026h3.4V15.653h7.365c5.896 0 8.725-2.976 8.725-7.92a7.78 7.78 0 0 0-1.813-5.13C194.802.942 192.616 0 189.781 0h-11.256zm-25.647 0h3.852l7.253-11.353h.075l6.95 11.353h4.08l-9.1-13.767L174.823 0h-3.739l-6.837 10.787h-.075L157.485 0h-3.928l8.688 13.163zm-18.547-2.98V2.942h6.308c6.346 0 8.611 4.3 8.611 10.636 0 6.337-2.531 10.41-8.876 10.41zm-3.4 2.98h9.555c8.121 0 12.238-5.318 12.238-13.39S148.874 0 140.751 0h-9.819z"></path></svg>
